<svg xmlns="http://www.w3.org/2000/svg" width="14.234" height="13" viewBox="0 0 14.234 13">
  <g id="down-arrow" transform="translate(0 -21.273)">
    <path id="Trazado_1042" data-name="Trazado 1042" d="M7.113,220.957a.309.309,0,0,1-.219-.09L.086,214.06a.309.309,0,0,1,.438-.438l6.589,6.588,6.588-6.589a.309.309,0,0,1,.438.438l-6.807,6.807A.31.31,0,0,1,7.113,220.957Z" transform="translate(0 -186.684)" fill="#9f9f9f"/>
    <path id="Trazado_1043" data-name="Trazado 1043" d="M7.113,28.7a.309.309,0,0,1-.219-.09L.086,21.806a.309.309,0,0,1,.438-.438l6.589,6.588L13.7,21.367a.309.309,0,1,1,.445.43l-.008.008L7.331,28.612A.31.31,0,0,1,7.113,28.7Z" transform="translate(0 0)" fill="#9f9f9f"/>
  </g>
</svg>
