<svg xmlns="http://www.w3.org/2000/svg" width="94" height="94" viewBox="0 0 94 94">
  <g id="Grupo_1366" data-name="Grupo 1366" transform="translate(-433 -1818)">
    <path id="pin" d="M-934.713,907.362A4.4,4.4,0,0,0-939,911.875c0,2.493,4.287,7.491,4.287,7.491s4.287-5,4.287-7.491A4.4,4.4,0,0,0-934.713,907.362Zm0,2.508a1.468,1.468,0,0,1,1.429,1.5,1.468,1.468,0,0,1-1.429,1.5,1.468,1.468,0,0,1-1.429-1.5A1.468,1.468,0,0,1-934.713,909.87Z" transform="translate(1415.277 950.633)" fill="#0dba6a"/>
  </g>
</svg>
