<svg xmlns="http://www.w3.org/2000/svg" width="53" height="53" viewBox="0 0 53 53">
  <path id="Sustracción_1" data-name="Sustracción 1" d="M34.262,53H11.042A11.057,11.057,0,0,1,0,41.958V11.042A11.057,11.057,0,0,1,11.042,0H41.958A11.057,11.057,0,0,1,53,11.042v23.22c0,.3-.021.6-.041.886,0,.063-.009.124-.013.185H41.958a6.632,6.632,0,0,0-6.625,6.625V52.947l-.185.013C34.859,52.979,34.56,53,34.262,53ZM31.015,8.816v12.6h3.222V17.1h4.428V13.982H34.237V11.93h4.518V8.816Zm-12.744,0v12.6H23.4A6.015,6.015,0,0,0,27.764,19.6a6.385,6.385,0,0,0,1.757-4.486,6.385,6.385,0,0,0-1.757-4.486A6.015,6.015,0,0,0,23.4,8.816Zm-10.656,0v12.6h3.222v-3.78h1.674A4.568,4.568,0,0,0,15.706,16.4a4.349,4.349,0,0,0,1.305-3.177,4.349,4.349,0,0,0-1.305-3.177,4.568,4.568,0,0,0-3.195-1.233ZM39.749,51.985h0V41.958a2.211,2.211,0,0,1,2.209-2.209H51.985a15.277,15.277,0,0,1-3.514,5.444l-3.277,3.28a15.355,15.355,0,0,1-5.443,3.511ZM23.4,18.3H21.583V11.93H23.4a2.893,2.893,0,0,1,2.133.871,3.285,3.285,0,0,1,.837,2.315,3.285,3.285,0,0,1-.837,2.315A2.893,2.893,0,0,1,23.4,18.3Zm-10.89-3.726H10.837V11.894h1.674a1.263,1.263,0,0,1,1.278,1.332A1.272,1.272,0,0,1,12.511,14.576Z" fill="#e3e3e3"/>
</svg>
