<svg xmlns="http://www.w3.org/2000/svg" width="51.348" height="39.01" viewBox="0 0 51.348 39.01">
  <g id="Grupo_1894" data-name="Grupo 1894" transform="translate(0.25 0.25)">
    <path id="Trazado_1173" data-name="Trazado 1173" d="M2.97,34.292l2.5-.224h.014l30.056-2.692v4.175H2.97ZM15.456,18.5,35.538,16.2V27.712ZM2.967,16.024l1.587.727L9.76,19.141l21.075,9.677L2.967,31.3Zm0-3.268,0-9.789h32.57V13.217L22.054,14.759,10.247,16.1H10.24ZM0,38.511H38.5V0H0Z" transform="translate(0 -0.001)" fill="#fff" stroke="#fff" stroke-width="0.5"/>
    <path id="Trazado_1174" data-name="Trazado 1174" d="M958.461,0v3.33h-3.33V6.3h3.33v3.33h2.967V6.3h3.331V3.331h-3.331V0Z" transform="translate(-913.66 -0.001)" fill="#fff"/>
  </g>
</svg>
