<svg xmlns="http://www.w3.org/2000/svg" xmlns:xlink="http://www.w3.org/1999/xlink" width="91.998" height="72" viewBox="0 0 91.998 72">
  <defs>
    <linearGradient id="linear-gradient" y1="0.486" x2="1" y2="0.5" gradientUnits="objectBoundingBox">
      <stop offset="0" stop-color="#335947"/>
      <stop offset="1" stop-color="#329567"/>
    </linearGradient>
  </defs>
  <g id="Grupo_2038" data-name="Grupo 2038" transform="translate(-20941.303 -9844)">
    <rect id="Rectángulo_1035" data-name="Rectángulo 1035" width="72" height="72" rx="10" transform="translate(20961.301 9844)" fill="#0dba6a" opacity="0.162"/>
    <rect id="Rectángulo_1036" data-name="Rectángulo 1036" width="72" height="72" rx="10" transform="translate(20951.301 9844)" fill="#0dba6a" opacity="0.5"/>
    <rect id="Rectángulo_1059" data-name="Rectángulo 1059" width="72" height="72" rx="10" transform="translate(20941.303 9844)" fill="url(#linear-gradient)"/>
    <path id="Layer_63" data-name="Layer 63" d="M17.307,32.23a4.314,4.314,0,0,1-3.048-1.265L6.134,22.826a4.314,4.314,0,0,1,0-6.1l1.007-1.021a4.314,4.314,0,0,1,6.111,0l4.055,4.069L28.494,8.591a4.443,4.443,0,0,1,6.111,0l1.007,1.021a4.314,4.314,0,0,1,0,6.1L20.369,30.965a4.314,4.314,0,0,1-3.063,1.265ZM10.2,17.319a1.438,1.438,0,0,0-1.021.431L8.162,18.757a1.438,1.438,0,0,0,0,2.042L16.3,28.923a1.438,1.438,0,0,0,2.027,0L33.584,13.681a1.438,1.438,0,0,0,0-2.042l-1.021-1.007a1.438,1.438,0,0,0-2.027,0h0L18.328,22.826a1.438,1.438,0,0,1-2.027,0L11.21,17.75A1.438,1.438,0,0,0,10.2,17.319ZM29.5,9.612Z" transform="translate(20956.43 9860.198)" fill="#0dba6a"/>
  </g>
</svg>
