<svg xmlns="http://www.w3.org/2000/svg" xmlns:xlink="http://www.w3.org/1999/xlink" width="92" height="72" viewBox="0 0 92 72">
  <defs>
    <linearGradient id="linear-gradient" y1="0.486" x2="1" y2="0.5" gradientUnits="objectBoundingBox">
      <stop offset="0" stop-color="#335947"/>
      <stop offset="1" stop-color="#329567"/>
    </linearGradient>
  </defs>
  <g id="Grupo_2041" data-name="Grupo 2041" transform="translate(-20941.301 -10102)">
    <rect id="Rectángulo_177" data-name="Rectángulo 177" width="72" height="72" rx="10" transform="translate(20961.301 10102)" fill="#0dba6a" opacity="0.162"/>
    <rect id="Rectángulo_176" data-name="Rectángulo 176" width="72" height="72" rx="10" transform="translate(20951.301 10102)" fill="#0dba6a" opacity="0.5"/>
    <rect id="Rectángulo_1062" data-name="Rectángulo 1062" width="72" height="72" rx="10" transform="translate(20941.301 10102)" fill="url(#linear-gradient)"/>
    <path id="Layer_22" data-name="Layer 22" d="M15.383,6.515a1.338,1.338,0,1,0,1.338,1.338A1.338,1.338,0,0,0,15.383,6.515Zm-4.015,0a1.338,1.338,0,1,0,1.338,1.338A1.338,1.338,0,0,0,11.368,6.515Zm-4.015,0A1.338,1.338,0,1,0,8.691,7.853,1.338,1.338,0,0,0,7.353,6.515Zm0,0A1.338,1.338,0,1,0,8.691,7.853,1.338,1.338,0,0,0,7.353,6.515Zm4.015,0a1.338,1.338,0,1,0,1.338,1.338A1.338,1.338,0,0,0,11.368,6.515Zm4.015,0a1.338,1.338,0,1,0,1.338,1.338A1.338,1.338,0,0,0,15.383,6.515Zm0,0a1.338,1.338,0,1,0,1.338,1.338A1.338,1.338,0,0,0,15.383,6.515Zm-4.015,0a1.338,1.338,0,1,0,1.338,1.338A1.338,1.338,0,0,0,11.368,6.515Zm-4.015,0A1.338,1.338,0,1,0,8.691,7.853,1.338,1.338,0,0,0,7.353,6.515ZM26.089,2.5H4.677A2.677,2.677,0,0,0,2,5.177V25.25a2.677,2.677,0,0,0,2.677,2.677H26.089a2.677,2.677,0,0,0,2.677-2.677V5.177A2.677,2.677,0,0,0,26.089,2.5Zm0,22.75H4.677V13.206H26.089Zm0-14.721H4.677V5.177H26.089ZM15.383,9.191a1.338,1.338,0,1,0-1.338-1.338A1.338,1.338,0,0,0,15.383,9.191Zm-4.015,0A1.338,1.338,0,1,0,10.03,7.853,1.338,1.338,0,0,0,11.368,9.191Zm-4.015,0A1.338,1.338,0,1,0,6.015,7.853,1.338,1.338,0,0,0,7.353,9.191Zm0-2.677A1.338,1.338,0,1,0,8.691,7.853,1.338,1.338,0,0,0,7.353,6.515Zm4.015,0a1.338,1.338,0,1,0,1.338,1.338A1.338,1.338,0,0,0,11.368,6.515Zm4.015,0a1.338,1.338,0,1,0,1.338,1.338A1.338,1.338,0,0,0,15.383,6.515Z" transform="translate(20962.219 10123.287)" fill="#0dba6a"/>
  </g>
</svg>
