<svg xmlns="http://www.w3.org/2000/svg" width="152.311" height="31.498" viewBox="0 0 152.311 31.498">
  <g id="Grupo_2" data-name="Grupo 2" transform="translate(-1026.528 308.302)">
    <g id="Grupo_1" data-name="Grupo 1" transform="translate(1063.153 -308.302)">
      <path id="Trazado_1" data-name="Trazado 1" d="M1094.917-298.272v2.829h-7.532V-308.3h2.939v10.03Z" transform="translate(-1087.385 308.302)" fill="#fff"/>
      <path id="Trazado_2" data-name="Trazado 2" d="M1110.815-297.463h-4.776l-.643,2.021h-3.215l4.373-12.86h3.747l4.373,12.86h-3.215Zm-.881-2.755-1.506-4.722-1.506,4.722Z" transform="translate(-1093.277 308.302)" fill="#fff"/>
      <path id="Trazado_3" data-name="Trazado 3" d="M1135.651-308.3v12.86h-2.205l-4.96-6.981v6.981h-2.939V-308.3h2.205l4.96,6.981V-308.3Z" transform="translate(-1102.58 308.302)" fill="#fff"/>
      <path id="Trazado_4" data-name="Trazado 4" d="M1158.162-301.872a6.226,6.226,0,0,1-6.245,6.43h-5.144V-308.3h5.144A6.226,6.226,0,0,1,1158.162-301.872Zm-2.828,0a3.31,3.31,0,0,0-3.417-3.6h-2.205v7.2h2.205A3.31,3.31,0,0,0,1155.334-301.872Z" transform="translate(-1111.033 308.302)" fill="#fff"/>
      <path id="Trazado_5" data-name="Trazado 5" d="M1179.968-305.473v2.48h4.776v2.829h-4.776v4.721h-2.94V-308.3h7.807v2.829Z" transform="translate(-1123.079 308.302)" fill="#fff"/>
      <path id="Trazado_6" data-name="Trazado 6" d="M1196.614-308.3v12.86h-2.94V-308.3Z" transform="translate(-1129.708 308.302)" fill="#fff"/>
      <path id="Trazado_7" data-name="Trazado 7" d="M1213.095-308.3v12.86h-2.2l-4.96-6.981v6.981h-2.94V-308.3h2.205l4.96,6.981V-308.3Z" transform="translate(-1133.417 308.302)" fill="#fff"/>
      <path id="Trazado_8" data-name="Trazado 8" d="M1235.607-301.872a6.226,6.226,0,0,1-6.245,6.43h-5.144V-308.3h5.144A6.226,6.226,0,0,1,1235.607-301.872Zm-2.828,0a3.311,3.311,0,0,0-3.417-3.6h-2.2v7.2h2.2A3.31,3.31,0,0,0,1232.778-301.872Z" transform="translate(-1141.87 308.302)" fill="#fff"/>
      <path id="Trazado_9" data-name="Trazado 9" d="M1254.262-298.272v2.829h-8.084V-308.3h7.991v2.829h-5.052v2.131h4.592v2.793h-4.592v2.277Z" transform="translate(-1150.614 308.302)" fill="#fff"/>
      <path id="Trazado_10" data-name="Trazado 10" d="M1267.465-299.667h-1.4v4.225h-2.939V-308.3h5.144a4.4,4.4,0,0,1,4.408,4.409,4.239,4.239,0,0,1-2.369,3.729l2.738,4.721h-3.161Zm-1.4-2.572h2.2a1.557,1.557,0,0,0,1.469-1.654,1.557,1.557,0,0,0-1.469-1.653h-2.2Z" transform="translate(-1157.364 308.302)" fill="#fff"/>
      <path id="Trazado_11" data-name="Trazado 11" d="M1100.245-264.9h-2.939v-7.477l-3.326,5.456h-.33l-3.326-5.456v7.477h-2.939v-12.86h2.939l3.49,5.713,3.492-5.713h2.939Z" transform="translate(-1087.385 296.14)" fill="#fff"/>
      <path id="Trazado_12" data-name="Trazado 12" d="M1121.276-270.16v2.829h-8.083v-12.86h7.991v2.829h-5.052v2.131h4.592v2.793h-4.592v2.277Zm-3.087-11.132h-2.645l1.469-2.572h3.308Z" transform="translate(-1097.662 298.571)" fill="#fff"/>
      <path id="Trazado_13" data-name="Trazado 13" d="M1136.3-264.9l-2.167-3.711-2.168,3.711h-3.343l3.839-6.6-3.656-6.264h3.344l1.984,3.4,1.985-3.4h3.343l-3.655,6.264,3.84,6.6Z" transform="translate(-1103.804 296.14)" fill="#fff"/>
      <path id="Trazado_14" data-name="Trazado 14" d="M1152.785-277.759v12.86h-2.939v-12.86Z" transform="translate(-1112.256 296.14)" fill="#fff"/>
      <path id="Trazado_15" data-name="Trazado 15" d="M1158.245-271.5a6.519,6.519,0,0,1,6.688-6.687,6.414,6.414,0,0,1,5.511,2.976l-2.535,1.471a3.321,3.321,0,0,0-2.975-1.58,3.559,3.559,0,0,0-3.749,3.821,3.56,3.56,0,0,0,3.749,3.822,3.3,3.3,0,0,0,2.975-1.58l2.535,1.47a6.369,6.369,0,0,1-5.511,2.976A6.519,6.519,0,0,1,1158.245-271.5Z" transform="translate(-1115.6 296.311)" fill="#fff"/>
      <path id="Trazado_16" data-name="Trazado 16" d="M1180.357-271.5a6.63,6.63,0,0,1,6.688-6.687,6.63,6.63,0,0,1,6.686,6.687,6.63,6.63,0,0,1-6.686,6.687A6.63,6.63,0,0,1,1180.357-271.5Zm10.435,0a3.658,3.658,0,0,0-3.747-3.821,3.659,3.659,0,0,0-3.749,3.821,3.659,3.659,0,0,0,3.749,3.822A3.658,3.658,0,0,0,1190.792-271.5Z" transform="translate(-1124.405 296.311)" fill="#fff"/>
    </g>
    <path id="Trazado_17" data-name="Trazado 17" d="M1026.528-308.3v31.252h31.246V-308.3Zm2.407,2.407h26.432v8.317l-10.941,1.252-9.581,1.089h-.006l-5.9-2.708Zm5.513,13.126,17.1,7.854-22.616,2.016v-12.4l1.288.59Zm4.622-.524,16.3-1.86v9.34Zm16.3,13.836h-26.432v-1.022l2.028-.181h.012l24.391-2.185v3.388Z" fill="#fff"/>
  </g>
</svg>
