<svg id="Grupo_1929" data-name="Grupo 1929" xmlns="http://www.w3.org/2000/svg" xmlns:xlink="http://www.w3.org/1999/xlink" width="357.839" height="216.52" viewBox="0 0 357.839 216.52">
  <defs>
    <clipPath id="clip-path">
      <rect id="Rectángulo_959" data-name="Rectángulo 959" width="216.633" height="216.52" fill="#fff"/>
    </clipPath>
    <clipPath id="clip-path-2">
      <rect id="Rectángulo_961" data-name="Rectángulo 961" width="357.839" height="216.52" fill="#fff"/>
    </clipPath>
    <clipPath id="clip-path-3">
      <rect id="Rectángulo_962" data-name="Rectángulo 962" width="11.315" height="11.315" fill="#fff"/>
    </clipPath>
  </defs>
  <g id="Grupo_1924" data-name="Grupo 1924">
    <g id="Grupo_1923" data-name="Grupo 1923" clip-path="url(#clip-path)">
      <path id="Trazado_1434" data-name="Trazado 1434" d="M104.575,12.167V92.412a12.167,12.167,0,0,1-12.163,12.165H12.167A12.167,12.167,0,0,0,0,116.743v87.605a12.167,12.167,0,0,0,12.167,12.167H99.889a12.167,12.167,0,0,0,12.167-12.167V124.225a12.167,12.167,0,0,1,12.167-12.167h80.242a12.167,12.167,0,0,0,12.167-12.167V12.167A12.167,12.167,0,0,0,204.465,0H116.742a12.167,12.167,0,0,0-12.167,12.167" fill="#fff"/>
    </g>
  </g>
  <path id="Trazado_1435" data-name="Trazado 1435" d="M131.9,217.752V236.8h11.155v-4.19h-6.8V217.752Z" transform="translate(-12.282 -20.276)" fill="#fff"/>
  <path id="Trazado_1436" data-name="Trazado 1436" d="M154.923,222.73l2.232,6.992h-4.463Zm-2.774-4.978L145.674,236.8h4.761l.952-2.993h7.074l.952,2.993h4.761L157.7,217.752Z" transform="translate(-13.565 -20.276)" fill="#fff"/>
  <path id="Trazado_1437" data-name="Trazado 1437" d="M179.054,217.752V228.09l-7.346-10.338h-3.266V236.8H172.8V226.457l7.346,10.338h3.266V217.752Z" transform="translate(-15.685 -20.276)" fill="#fff"/>
  <g id="Grupo_1926" data-name="Grupo 1926">
    <g id="Grupo_1925" data-name="Grupo 1925" clip-path="url(#clip-path-2)">
      <path id="Trazado_1438" data-name="Trazado 1438" d="M205.981,227.273a9.221,9.221,0,0,1-9.249,9.522h-7.618V217.752h7.618a9.221,9.221,0,0,1,9.249,9.521m-4.19,0c0-3.265-2.067-5.332-5.06-5.332h-3.266v10.664h3.266c2.993,0,5.06-2.067,5.06-5.332" transform="translate(-17.609 -20.276)" fill="#fff"/>
      <path id="Trazado_1439" data-name="Trazado 1439" d="M223.406,221.942v3.673h7.074V229.8h-7.074V236.8h-4.353V217.752h11.563v4.19Z" transform="translate(-20.397 -20.276)" fill="#fff"/>
      <rect id="Rectángulo_960" data-name="Rectángulo 960" width="4.353" height="19.044" transform="translate(213.319 197.476)" fill="#fff"/>
      <path id="Trazado_1440" data-name="Trazado 1440" d="M259.156,217.752V236.8H255.89l-7.345-10.338V236.8h-4.353V217.752h3.266L254.8,228.09V217.752Z" transform="translate(-22.738 -20.276)" fill="#fff"/>
      <path id="Trazado_1441" data-name="Trazado 1441" d="M281.73,227.273a9.221,9.221,0,0,1-9.249,9.522h-7.618V217.752h7.618a9.221,9.221,0,0,1,9.249,9.521m-4.19,0c0-3.265-2.067-5.332-5.06-5.332h-3.266v10.664h3.266c2.993,0,5.06-2.067,5.06-5.332" transform="translate(-24.663 -20.276)" fill="#fff"/>
      <path id="Trazado_1442" data-name="Trazado 1442" d="M298.7,232.606v4.19h-11.97V217.752h11.835v4.19h-7.482V225.1h6.8v4.134h-6.8v3.374Z" transform="translate(-26.699 -20.276)" fill="#fff"/>
      <path id="Trazado_1443" data-name="Trazado 1443" d="M309.623,230.538h-2.068V236.8H303.2V217.752h7.619a6.514,6.514,0,0,1,6.529,6.529,6.277,6.277,0,0,1-3.51,5.523l4.054,6.992h-4.68Zm-2.068-3.809h3.266a2.465,2.465,0,0,0,0-4.9h-3.266Z" transform="translate(-28.233 -20.276)" fill="#fff"/>
      <path id="Trazado_1444" data-name="Trazado 1444" d="M131.9,197.96a9.653,9.653,0,0,1,9.9-9.9,9.5,9.5,0,0,1,8.162,4.407l-3.755,2.177a4.921,4.921,0,0,0-4.407-2.34,5.66,5.66,0,0,0,0,11.317,4.89,4.89,0,0,0,4.407-2.34l3.755,2.177a9.433,9.433,0,0,1-8.162,4.407,9.654,9.654,0,0,1-9.9-9.9" transform="translate(-12.282 -17.511)" fill="#fff"/>
      <path id="Trazado_1445" data-name="Trazado 1445" d="M153.444,197.96a9.9,9.9,0,1,1,9.9,9.9,9.818,9.818,0,0,1-9.9-9.9m15.453,0a5.551,5.551,0,1,0-5.55,5.659,5.417,5.417,0,0,0,5.55-5.659" transform="translate(-14.288 -17.511)" fill="#fff"/>
      <path id="Trazado_1446" data-name="Trazado 1446" d="M189.709,203.332v4.19H178.555V188.478h4.353v14.854Z" transform="translate(-16.626 -17.55)" fill="#fff"/>
      <path id="Trazado_1447" data-name="Trazado 1447" d="M205.11,204.529h-7.073l-.952,2.993h-4.761l6.474-19.044h5.55l6.475,19.044h-4.761Zm-1.306-4.081-2.231-6.992-2.231,6.992Z" transform="translate(-17.908 -17.55)" fill="#fff"/>
      <path id="Trazado_1448" data-name="Trazado 1448" d="M229.241,201.944c0,3.374-2.748,5.577-6.149,5.577h-8V188.478h7.455c3.319,0,6.013,2.149,6.013,5.441a4.77,4.77,0,0,1-1.66,3.726,4.92,4.92,0,0,1,2.34,4.3m-9.794-9.385v3.373h3.1a1.687,1.687,0,0,0,0-3.373Zm5.441,9.059a1.721,1.721,0,0,0-1.8-1.823h-3.646v3.646h3.646a1.721,1.721,0,0,0,1.8-1.823" transform="translate(-20.029 -17.55)" fill="#fff"/>
      <path id="Trazado_1449" data-name="Trazado 1449" d="M232.764,197.96a9.9,9.9,0,1,1,9.9,9.9,9.817,9.817,0,0,1-9.9-9.9m15.452,0a5.551,5.551,0,1,0-5.55,5.659,5.417,5.417,0,0,0,5.55-5.659" transform="translate(-21.674 -17.511)" fill="#fff"/>
      <path id="Trazado_1450" data-name="Trazado 1450" d="M264.294,201.264h-2.068v6.258h-4.353V188.478h7.619a6.513,6.513,0,0,1,6.529,6.529,6.277,6.277,0,0,1-3.51,5.523l4.054,6.992h-4.68Zm-2.068-3.809h3.266a2.465,2.465,0,0,0,0-4.9h-3.266Z" transform="translate(-24.012 -17.55)" fill="#fff"/>
      <path id="Trazado_1451" data-name="Trazado 1451" d="M287.879,204.529h-7.073l-.952,2.993h-4.761l6.474-19.044h5.551l6.474,19.044h-4.761Zm-1.305-4.081-2.231-6.992-2.231,6.992Z" transform="translate(-25.615 -17.55)" fill="#fff"/>
      <path id="Trazado_1452" data-name="Trazado 1452" d="M314.731,198a9.221,9.221,0,0,1-9.25,9.522h-7.617V188.478h7.617a9.221,9.221,0,0,1,9.25,9.521m-4.19,0c0-3.265-2.068-5.332-5.06-5.332h-3.265v10.664h3.265c2.993,0,5.06-2.067,5.06-5.333" transform="translate(-27.736 -17.55)" fill="#fff"/>
      <path id="Trazado_1453" data-name="Trazado 1453" d="M318.833,197.96a9.9,9.9,0,1,1,9.9,9.9,9.817,9.817,0,0,1-9.9-9.9m15.452,0a5.551,5.551,0,1,0-5.55,5.659,5.417,5.417,0,0,0,5.55-5.659" transform="translate(-29.688 -17.511)" fill="#fff"/>
      <path id="Trazado_1454" data-name="Trazado 1454" d="M350.363,201.264H348.3v6.258h-4.353V188.478h7.618a6.514,6.514,0,0,1,6.53,6.529,6.278,6.278,0,0,1-3.51,5.523l4.053,6.992h-4.68Zm-2.068-3.809h3.265a2.465,2.465,0,0,0,0-4.9H348.3Z" transform="translate(-32.026 -17.55)" fill="#fff"/>
      <path id="Trazado_1455" data-name="Trazado 1455" d="M374.933,203.332v4.19H362.962V188.478H374.8v4.19h-7.482v3.156h6.8v4.134h-6.8v3.374Z" transform="translate(-33.797 -17.55)" fill="#fff"/>
      <path id="Trazado_1456" data-name="Trazado 1456" d="M378.382,203.157l3.755-2.177a3.989,3.989,0,0,0,4,2.639c2.068,0,2.584-.817,2.584-1.551,0-1.17-1.087-1.632-3.944-2.421-2.83-.789-5.6-2.149-5.6-5.795,0-3.673,3.1-5.794,6.394-5.794a7.387,7.387,0,0,1,6.965,4.3l-3.673,2.149a3.337,3.337,0,0,0-3.292-2.2c-1.36,0-2.041.68-2.041,1.442,0,.871.463,1.469,3.428,2.367,2.884.871,6.121,1.877,6.121,5.9,0,3.673-2.937,5.848-7.074,5.848-4,0-6.556-1.9-7.617-4.706" transform="translate(-35.233 -17.511)" fill="#fff"/>
    </g>
  </g>
  <g id="Grupo_1928" data-name="Grupo 1928" transform="translate(224.19)">
    <g id="Grupo_1927" data-name="Grupo 1927" clip-path="url(#clip-path-3)">
      <path id="Trazado_1457" data-name="Trazado 1457" d="M252.866,0a5.657,5.657,0,1,0,5.657,5.657A5.657,5.657,0,0,0,252.866,0m0,10.183a4.526,4.526,0,1,1,4.526-4.526,4.527,4.527,0,0,1-4.526,4.526m.283-7.355h-1.7a.565.565,0,0,0-.566.566V7.921a.566.566,0,1,0,1.132,0V6.789h1.131a.565.565,0,0,1,.566.566v.566a.566.566,0,0,0,1.132,0h0V7.355a1.7,1.7,0,0,0-.442-1.132,1.7,1.7,0,0,0,.442-1.132V4.526a1.7,1.7,0,0,0-1.7-1.7m.566,2.267a.565.565,0,0,1-.566.566h-1.134V3.96h1.134a.565.565,0,0,1,.566.566Z" transform="translate(-247.209)" fill="#fff"/>
    </g>
  </g>
</svg>
